<svg xmlns="http://www.w3.org/2000/svg" xmlns:xlink="http://www.w3.org/1999/xlink" width="500" zoomAndPan="magnify" viewBox="0 0 375 374.999991" height="500" preserveAspectRatio="xMidYMid meet" version="1.0"><defs><g/></defs><path fill="#000000" d="M 265.625 312.5 L 62.5 312.5 L 62.5 109.375 C 62.5 100.78125 55.46875 93.75 46.875 93.75 C 38.28125 93.75 31.25 100.78125 31.25 109.375 L 31.25 312.5 C 31.25 329.6875 45.3125 343.75 62.5 343.75 L 265.625 343.75 C 274.21875 343.75 281.25 336.71875 281.25 328.125 C 281.25 319.53125 274.21875 312.5 265.625 312.5 Z M 265.625 312.5 " fill-opacity="1" fill-rule="nonzero"/><path fill="#000000" d="M 312.5 31.25 L 125 31.25 C 107.8125 31.25 93.75 45.3125 93.75 62.5 L 93.75 250 C 93.75 267.1875 107.8125 281.25 125 281.25 L 312.5 281.25 C 329.6875 281.25 343.75 267.1875 343.75 250 L 343.75 62.5 C 343.75 45.3125 329.6875 31.25 312.5 31.25 Z M 312.5 31.25 " fill-opacity="1" fill-rule="nonzero"/><g fill="#ffffff" fill-opacity="1"><g transform="translate(157.896117, 220.467437)"><g><path d="M 90.71875 -129.601562 L 59.832031 -36.9375 L 28.945312 -129.601562 L -2.808594 -129.601562 L 43.847656 0 L 75.816406 0 L 122.472656 -129.601562 Z M 90.71875 -129.601562 "/></g></g></g></svg>